<svg width="44" height="43" viewBox="0 0 44 43" fill="none" xmlns="http://www.w3.org/2000/svg">
<mask id="mask0_295_252" style="mask-type:luminance" maskUnits="userSpaceOnUse" x="20" y="20" width="24" height="23">
<path d="M40.7084 30.3977V40.7262C40.7084 40.8478 40.7084 40.8478 40.5869 40.9693C40.4654 41.0908 40.4654 41.0908 40.3438 41.0908H35.1188V35.8657C35.1188 35.6227 34.9973 35.5012 34.8758 35.2582C34.7543 35.1367 34.5112 35.0151 34.2682 35.0151H29.7722C29.5292 35.0151 29.4077 35.1367 29.1647 35.2582C29.0432 35.3797 28.9216 35.6227 28.9216 35.8657V41.0908H23.9396C23.8181 41.0908 23.8181 41.0908 23.6966 40.9693C23.5751 40.9693 23.5751 40.8478 23.5751 40.7262V30.3977H22.603V40.7262C22.603 41.0908 22.7245 41.4553 22.9675 41.6983C23.2105 41.9414 23.5751 42.0629 23.9396 42.0629H30.1368V36.1088H34.1467V42.0629H40.3438C40.7084 42.0629 41.0729 41.9414 41.316 41.6983C41.559 41.4553 41.6805 41.0908 41.6805 40.7262V30.8837V30.3977H40.7084ZM23.3321 22.1348C23.089 22.1348 22.846 22.2563 22.7245 22.3778C22.603 22.4993 22.4815 22.7423 22.4815 22.9854V26.9953L23.4536 26.1447V23.1069H26.1269V22.1348H23.3321ZM31.7164 20.6766L20.5373 29.5471C20.2942 29.7901 20.2942 30.0331 20.4158 30.2761C20.5373 30.5192 20.9018 30.5192 21.1448 30.3977L32.081 21.7702L43.0171 30.3977C43.2602 30.5192 43.5032 30.5192 43.7462 30.2761C43.8677 30.0331 43.8677 29.7901 43.6247 29.5471L32.4455 20.6766C32.324 20.5551 32.2025 20.4336 32.081 20.4336C31.9595 20.5551 31.838 20.5551 31.7164 20.6766Z" fill="white"/>
</mask>
<g mask="url(#mask0_295_252)">
<path d="M43.9841 20.5554H20.2891V42.0632H43.9841V20.5554Z" fill="#6E7A73"/>
</g>
<mask id="mask1_295_252" style="mask-type:luminance" maskUnits="userSpaceOnUse" x="0" y="0" width="34" height="42">
<path d="M5.83261 40.1186C5.83261 39.7541 6.07563 39.3896 6.56169 39.3896C8.26287 39.3896 10.0856 39.3896 11.7867 39.3896C12.1513 39.3896 12.3943 39.6326 12.5158 40.1186C12.5158 40.3617 12.5158 40.4832 12.5158 40.7262H5.95412C5.83261 40.4832 5.83261 40.2402 5.83261 40.1186ZM1.33664 13.1428V7.91777H3.88841V9.74046C3.88841 10.591 3.88841 11.4416 3.88841 12.2922C3.88841 12.8998 3.64538 13.1428 3.03782 13.1428C2.79479 13.1428 2.55177 13.1428 2.30874 13.1428C2.06572 13.1428 1.70118 13.1428 1.33664 13.1428ZM11.7867 1.4776C17.2548 3.17878 22.7229 4.75842 28.0695 6.4596H11.7867V1.4776ZM7.77681 4.51542C7.77681 3.66483 7.77681 2.69272 7.77681 1.84213C7.77681 1.72062 7.77681 1.4776 7.77681 1.35608H10.3286V6.58112H2.18723C3.52387 5.24448 4.98202 3.78633 6.31866 2.44969C6.31866 2.69272 6.31866 2.93575 6.31866 3.17878C6.31866 3.66483 6.31866 4.15086 6.31866 4.63691C6.31866 5.00145 6.56169 5.36599 6.92623 5.36599C7.53379 5.24448 7.77681 5.00147 7.77681 4.51542ZM7.29077 0.0194368C7.04774 0.0194368 6.80472 0.140964 6.68321 0.262477C4.49598 2.44971 2.43026 4.51541 0.243026 6.70264C0.121514 6.82415 0 7.06718 0 7.3102C0 9.49743 0 11.5631 0 13.7504C0 14.2364 0.243028 14.4794 0.729079 14.4794C1.57967 14.4794 2.30875 14.4794 3.15933 14.4794C4.49598 14.4794 5.22505 13.6289 5.22505 12.2922C5.22505 11.6847 5.22505 11.0771 5.22505 10.4695H6.56169V38.0529C5.10353 38.1744 4.49597 39.2681 4.61748 40.3617C4.61748 40.6047 4.61748 40.8477 4.61748 41.0907C4.61748 41.4553 4.739 41.8198 4.98203 41.9413H13.3664C13.7309 41.6983 13.8525 41.4553 13.7309 41.0907C13.7309 40.7262 13.7309 40.3617 13.7309 39.9971C13.7309 39.025 13.1234 38.2959 12.2728 38.0529C12.0298 38.0529 11.7867 37.9314 11.6652 37.9314C10.4501 37.9314 9.11346 37.9314 7.89833 37.9314V10.348H10.4501V10.8341C10.4501 19.0969 10.4501 27.3598 10.4501 35.6227C10.4501 35.7442 10.4501 35.8657 10.4501 35.9872C10.4501 36.3518 10.8146 36.5948 11.0577 36.5948C11.3007 36.5948 11.6652 36.3518 11.6652 35.9872C11.6652 35.8657 11.6652 35.7442 11.6652 35.6227C11.6652 27.3598 11.6652 19.0969 11.6652 10.8341V10.348H12.1513C13.7309 10.348 15.3106 10.348 16.8903 10.348C17.2548 10.348 17.6194 10.105 17.6194 9.74046C17.6194 9.37592 17.3763 9.13289 16.8903 9.13289C16.7688 9.13289 16.6473 9.13289 16.5257 9.13289H5.58959H5.10354V7.91777H31.9579V9.25441H31.4718C27.5834 9.25441 23.695 9.25441 19.6851 9.25441C19.5636 9.25441 19.442 9.25441 19.3205 9.25441C18.956 9.25441 18.713 9.49744 18.713 9.86198C18.713 10.2265 18.956 10.4695 19.3205 10.5911C19.442 10.5911 19.5636 10.5911 19.6851 10.5911C22.4799 10.5911 25.3962 10.5911 28.191 10.5911H28.677C28.677 11.3201 28.677 12.1707 28.677 12.8998C28.677 13.2643 28.5555 13.3858 28.3125 13.5074C27.4619 13.9934 27.0973 14.9655 27.4619 15.9376C27.8264 16.7882 28.677 17.3958 29.6491 17.1527C30.4997 17.0312 31.2288 16.1806 31.3503 15.3301C31.3503 14.844 31.1073 14.601 30.7427 14.601C30.3782 14.601 30.1352 14.844 30.0137 15.2085C29.8921 15.6946 29.6491 15.9376 29.2846 15.9376C28.92 15.9376 28.677 15.5731 28.677 15.3301C28.677 14.9655 28.92 14.7225 29.2846 14.601C29.7706 14.4795 29.8921 14.3579 29.8921 13.8719C29.8921 12.8998 29.8921 12.0492 29.8921 11.0771V10.7125C30.7427 10.7125 31.5933 10.7125 32.3224 10.7125C32.93 10.7125 33.173 10.4695 33.173 9.86198C33.173 9.1329 33.173 8.4038 33.173 7.67473C33.173 7.06716 33.0515 6.94566 32.4439 6.70264C25.6392 4.63692 18.713 2.5712 11.9082 0.50548C11.5437 0.383968 11.0577 0.262477 10.6931 0.262477C10.0856 0.262477 9.59951 0.262477 8.99194 0.262477C8.6274 -0.102061 7.89833 0.0194368 7.29077 0.0194368Z" fill="white"/>
</mask>
<g mask="url(#mask1_295_252)">
<path d="M33.5375 -0.102051H0V41.9414H33.5375V-0.102051Z" fill="#6E7A73"/>
</g>
</svg>
