<svg width="45" height="43" viewBox="0 0 45 43" fill="none" xmlns="http://www.w3.org/2000/svg">
<mask id="mask0_295_243" style="mask-type:luminance" maskUnits="userSpaceOnUse" x="0" y="0" width="45" height="43">
<path d="M0.637315 40.5573C0.318658 40.5573 0 40.7698 0 41.1947V41.7258C0 42.0444 0.318658 42.3631 0.637315 42.3631C0.955973 42.3631 1.27463 42.1506 1.27463 41.7258H4.88608C4.88608 42.0444 5.20474 42.3631 5.52339 42.3631C5.84205 42.3631 6.16071 42.1506 6.16071 41.7258V41.1947C6.16071 40.876 5.84205 40.5573 5.52339 40.5573H0.637315ZM8.2851 38.5392C7.96644 38.5392 7.64778 38.7516 7.64778 39.0703V41.7258C7.64778 42.0444 7.86022 42.3631 8.2851 42.3631C8.60375 42.3631 8.92241 42.1506 8.92241 41.7258V39.8138H12.5339V41.7258C12.5339 42.0444 12.7463 42.3631 13.1712 42.3631C13.4898 42.3631 13.8085 42.1506 13.8085 41.7258V39.1765C13.8085 38.8578 13.4898 38.6454 13.1712 38.6454H8.2851V38.5392ZM15.9329 37.0521C15.6142 37.0521 15.2956 37.2645 15.2956 37.5832V41.7258C15.2956 42.0444 15.508 42.3631 15.9329 42.3631C16.2515 42.3631 16.5702 42.1506 16.5702 41.7258V38.3267H20.1816V41.7258C20.1816 42.0444 20.3941 42.3631 20.819 42.3631C21.1376 42.3631 21.4563 42.1506 21.4563 41.7258V37.6894C21.4563 37.3708 21.1376 37.1583 20.819 37.1583H15.9329V37.0521ZM23.4744 33.122C23.1558 33.122 22.9433 33.4407 22.9433 33.7593V41.7258C22.9433 42.0444 23.1558 42.3631 23.4744 42.3631C23.7931 42.3631 24.1117 42.1506 24.1117 41.7258V34.2904H27.7232V41.7258C27.7232 42.0444 27.9356 42.3631 28.2543 42.3631C28.573 42.3631 28.8916 42.1506 28.8916 41.7258V33.7593C28.8916 33.4407 28.6792 33.122 28.2543 33.122H23.4744ZM31.1222 25.0494C30.8036 25.0494 30.4849 25.2618 30.4849 25.6867V41.7258C30.4849 42.0444 30.8036 42.3631 31.1222 42.3631C31.4409 42.3631 31.7595 42.1506 31.7595 41.7258V26.2178H35.371V41.7258C35.371 42.0444 35.6896 42.3631 36.0083 42.3631C36.327 42.3631 36.6456 42.1506 36.6456 41.7258V25.5804C36.6456 25.2618 36.327 24.9431 36.0083 24.9431H31.1222V25.0494ZM38.8762 11.4533C38.5575 11.4533 38.2389 11.772 38.2389 12.0906V41.7258C38.2389 42.0444 38.5575 42.3631 38.8762 42.3631C39.1949 42.3631 39.5135 42.1506 39.5135 41.7258V12.6217H43.125V41.7258C43.125 42.0444 43.4436 42.3631 43.7623 42.3631C44.081 42.3631 44.3996 42.1506 44.3996 41.7258V11.9844C44.3996 11.6657 44.081 11.3471 43.7623 11.3471H38.8762V11.4533ZM16.7826 8.90404C16.464 8.90404 16.1453 9.11648 16.1453 9.43514C16.1453 9.7538 16.464 10.0725 16.7826 10.0725H21.4563C22.6247 10.0725 23.4744 11.0284 23.4744 12.0906V19.6322C23.4744 19.9508 23.1558 20.2695 22.8371 20.2695H22.7309V14.7461C22.7309 14.4274 22.5185 14.215 22.1998 14.215C21.8811 14.215 21.5625 14.4274 21.5625 14.7461V21.2255L21.4563 22.6063C21.4563 22.925 21.7749 23.2436 22.0936 23.2436C22.4122 23.2436 22.7309 22.925 22.7309 22.6063L22.8371 21.5441H22.9433C23.8993 21.5441 24.7491 20.6944 24.7491 19.7384V12.1968C24.7491 11.3471 24.4304 10.4973 23.7931 9.86001C23.1558 9.2227 22.306 8.90404 21.4563 8.90404H16.7826ZM35.9021 1.04383L31.7595 6.24856C31.6533 6.461 31.6533 6.67344 31.6533 6.88588C31.7595 7.09832 31.8657 7.20454 32.0782 7.20454L34.7337 7.52319C32.9279 15.5958 28.4667 21.013 25.0677 24.0934C23.0496 25.8991 21.0314 27.1737 19.863 27.9173C18.4821 28.6608 17.6324 29.0857 17.6324 29.0857C17.3137 29.1919 17.2075 29.5106 17.3137 29.8292C17.4199 30.0417 17.6324 30.1479 17.8448 30.1479C17.951 30.1479 17.951 30.1479 18.0573 30.1479C18.0573 30.1479 19.0132 29.723 20.3941 28.8732C21.7749 28.1297 23.6869 26.7489 25.8113 24.9431C28.1481 22.8188 30.2725 20.3757 31.8657 17.8265C33.8839 14.5337 35.2648 10.9222 36.1145 7.09832V6.9921V7.09832C36.1145 6.77966 35.9021 6.56722 35.5834 6.461H35.4772L33.3528 6.14235L36.1145 2.53089L38.2389 7.62941C38.3451 7.84185 38.5576 8.05429 38.77 8.05429C38.8762 8.05429 38.9824 8.05429 38.9824 8.05429C39.3011 7.94807 39.4073 7.62941 39.3011 7.31076L36.858 1.15005C36.7518 0.937608 36.6456 0.831389 36.4332 0.72517C36.2207 0.831389 36.0083 0.831389 35.9021 1.04383ZM16.6764 4.12418C16.6764 2.63711 17.8448 1.57492 19.2257 1.57492C20.7127 1.57492 21.8811 2.74333 21.8811 4.12418C21.8811 5.61125 20.7127 6.77966 19.2257 6.77966C17.7386 6.77966 16.6764 5.61125 16.6764 4.12418ZM16.5702 1.4687C15.8267 2.21224 15.4018 3.16821 15.4018 4.12418C15.4018 5.18637 15.8267 6.14235 16.5702 6.88588C17.3137 7.62941 18.2697 7.94807 19.2257 7.94807C20.2879 7.94807 21.2438 7.52319 21.9874 6.88588C22.7309 6.14235 23.0496 5.18637 23.0496 4.12418C23.0496 3.16821 22.6247 2.10602 21.9874 1.4687C21.2438 0.72517 20.2879 0.300293 19.2257 0.300293C18.2697 0.300293 17.2075 0.72517 16.5702 1.4687Z" fill="white"/>
</mask>
<g mask="url(#mask0_295_243)">
<path d="M44.1857 0.300293H-0.00146484V42.2569H44.1857V0.300293Z" fill="#6E7A73"/>
</g>
</svg>
