<svg width="55" height="58" viewBox="0 0 55 58" fill="none" xmlns="http://www.w3.org/2000/svg">
<path d="M9.79674 19.6649L7.80469 19.0279L14.0129 -0.00927734H34.8579V2.06674H15.5331L9.79674 19.6649Z" fill="#A27F69"/>
<path d="M49.6235 31.592V1.32666L17.0234 33.6642H32.0277L32.1321 31.592H22.0713L47.5309 6.33442V31.592H36.1781L36.0737 33.6642H47.5309V42.6589H49.6235V33.6642H54.9962V31.592H49.6235Z" fill="#A27F69"/>
<path d="M34.8629 27.7118C34.4586 25.8008 33.737 23.9698 32.7277 22.2935L31.1457 23.7171C32.2564 25.6776 32.9269 27.8531 33.1111 30.0946C33.2953 32.3361 32.9889 34.5906 32.2128 36.7037C31.4368 38.8167 30.2095 40.7384 28.615 42.337C27.0205 43.9355 25.0965 45.1733 22.9748 45.9654C20.8531 46.7574 18.5839 47.0851 16.3227 46.926C14.0614 46.7669 11.8616 46.1247 9.87386 45.0434C7.88614 43.9621 6.15752 42.4673 4.80646 40.6614C3.45539 38.8556 2.5138 36.7813 2.04621 34.5807L0 35.0105C1.03004 39.5413 3.81638 43.4878 7.75646 45.9966C11.6965 48.5054 16.4737 49.3747 21.0548 48.4166C25.6359 47.4586 29.6528 44.7501 32.2367 40.8769C34.8207 37.0038 35.7641 32.2773 34.8629 27.7195" fill="#A27F69"/>
<path d="M26.0195 18.2871C27.0611 18.9614 28.0192 19.7548 28.8741 20.651L30.4214 19.258C28.3223 17.0501 25.6873 15.4134 22.7684 14.5043C19.8496 13.5953 16.7444 13.4444 13.75 14.066L14.1871 16.1075C16.2075 15.6795 18.2934 15.6527 20.3242 16.0288C22.3551 16.4049 24.2908 17.1763 26.0195 18.2987" fill="#A27F69"/>
<path d="M20.6411 57.9367L20.2543 57.023H18.4092L18.0224 57.9367H17.5234L19.0939 54.0977H19.5464L21.1633 57.9367H20.6411ZM19.3376 54.7733L18.5988 56.5815H20.088L19.3376 54.7733Z" fill="#A27F69"/>
<path d="M25.5716 57.9364L24.6858 56.4431H23.8116V57.9364H23.3281V54.0974H24.7864C25.1176 54.0861 25.44 54.2048 25.6838 54.4276C25.7995 54.5348 25.8911 54.6652 25.9524 54.8101C26.0138 54.955 26.0435 55.1112 26.0396 55.2683C26.0446 55.5195 25.9627 55.7647 25.8076 55.9632C25.6563 56.1719 25.4403 56.3257 25.1925 56.4008L26.1131 57.9364H25.5716ZM23.8116 54.5735V55.9901H24.7593C24.9678 55.9992 25.1716 55.9276 25.3279 55.7904C25.3988 55.7266 25.4549 55.6482 25.4923 55.5607C25.5297 55.4732 25.5475 55.3787 25.5445 55.2837C25.5471 55.1882 25.5291 55.0932 25.4917 55.0052C25.4544 54.9171 25.3985 54.838 25.3279 54.7731C25.1716 54.6359 24.9678 54.5643 24.7593 54.5735H23.8116Z" fill="#A27F69"/>
<path d="M31.0473 57.9367L30.6605 57.023H28.8155L28.4287 57.9367H27.9297L29.5001 54.0977H29.9527L31.5695 57.9367H31.0473ZM29.7361 54.7772L29.0127 56.5815H30.502L29.7361 54.7772Z" fill="#A27F69"/>
<path d="M36.2562 54.1128L34.8366 56.4085V57.9326H34.3377V56.4085L32.9297 54.1128H33.4557L34.5891 55.9594L35.7263 54.1128H36.2562Z" fill="#A27F69"/>
<path d="M40.727 57.9367L40.3402 57.023H38.4952L38.1084 57.9367H37.6094L39.1798 54.0977H39.6324L41.2492 57.9367H40.727ZM39.4158 54.7772L38.677 56.5815H40.1662L39.4158 54.7772Z" fill="#A27F69"/>
<path d="M14.776 56.4843H14.9616V57.9355H14.7682L14.745 57.7167C14.6771 57.797 14.591 57.8602 14.4936 57.9009C14.3932 57.9477 14.2834 57.9713 14.1725 57.97C14.037 57.971 13.9036 57.9365 13.7857 57.8702C13.6719 57.8058 13.5782 57.7115 13.515 57.5976C13.4481 57.4806 13.4135 57.3482 13.4144 57.2137C13.4113 57.1136 13.429 57.0139 13.4662 56.9208C13.5035 56.8277 13.5596 56.7432 13.631 56.6724C13.7013 56.6013 13.7857 56.5454 13.879 56.5084C13.9722 56.4714 14.0722 56.454 14.1725 56.4575C14.2816 56.4543 14.3899 56.4755 14.4896 56.5193C14.5894 56.5632 14.6779 56.6286 14.7489 56.7108L14.776 56.4843ZM13.8051 57.59C13.8805 57.666 13.9772 57.7178 14.0826 57.7387C14.188 57.7597 14.2973 57.7488 14.3964 57.7074C14.4955 57.6661 14.5798 57.5963 14.6385 57.5069C14.6972 57.4175 14.7276 57.3127 14.7257 57.2061C14.7283 57.1349 14.7159 57.064 14.6892 56.9979C14.6626 56.9318 14.6223 56.8719 14.571 56.8222C14.4676 56.7218 14.3287 56.6656 14.1841 56.6656C14.0396 56.6656 13.9007 56.7218 13.7973 56.8222C13.7464 56.8722 13.7064 56.9321 13.6797 56.9981C13.6531 57.0642 13.6405 57.135 13.6426 57.2061C13.64 57.2772 13.6524 57.3481 13.6791 57.4143C13.7057 57.4804 13.746 57.5402 13.7973 57.59" fill="#A27F69"/>
<path d="M16.0233 57.7206H16.1819V57.9356H15.9962C15.9259 57.9414 15.8551 57.9325 15.7884 57.9093C15.7218 57.8862 15.6608 57.8494 15.6094 57.8013C15.5621 57.7497 15.5259 57.689 15.5033 57.6229C15.4807 57.5569 15.472 57.4869 15.4779 57.4174V56.6803H15.2188V56.6419L15.6713 56.1697H15.7061V56.4768H16.1626V56.6803H15.7177V57.4135C15.7135 57.4949 15.7412 57.5747 15.7951 57.6362C15.826 57.6635 15.8622 57.6843 15.9014 57.6975C15.9406 57.7107 15.982 57.716 16.0233 57.713" fill="#A27F69"/>
<path d="M2.81538 30.3354L3.39945 30.3085C3.51577 30.2926 3.62404 30.2406 3.7088 30.1599C3.79355 30.0792 3.85044 29.974 3.87136 29.8594L5.67387 24.55H4.39355C4.30791 24.5538 4.22728 24.5911 4.1692 24.6536L3.28341 25.7286H2.95076L3.50776 24.1277H8.96946L8.48209 25.7247H8.18812L8.01405 24.6997C8.0052 24.6569 7.98519 24.6172 7.95603 24.5845C7.93834 24.5701 7.91796 24.5593 7.89606 24.5527C7.87416 24.5461 7.85116 24.5439 7.82839 24.5461H6.54032L4.95828 29.2681C4.88866 29.4946 4.8345 29.652 4.80356 29.7557C4.77551 29.8361 4.75987 29.9202 4.75714 30.0052C4.75543 30.0721 4.78046 30.137 4.82677 30.1857C4.90841 30.243 5.00531 30.275 5.10527 30.2778L5.78992 30.3354L5.67387 30.6463H2.71094L2.81538 30.3354Z" fill="#A27F69"/>
<path d="M10.4439 24.5924C10.5135 24.4235 10.4709 24.3276 10.3162 24.3007L9.9294 24.2431L10.0261 23.9744H11.3142L11.3645 24.0895L9.97968 27.3143C9.9303 27.436 9.87479 27.5552 9.81336 27.6713L9.67024 28.0053L9.71666 28.0476C9.81336 27.917 9.9178 27.7827 10.03 27.6637C10.1421 27.5447 10.2504 27.3988 10.3665 27.2798C10.4825 27.1608 10.5908 27.0417 10.6991 26.9381C10.7949 26.8396 10.897 26.7472 11.0047 26.6617C11.158 26.5348 11.332 26.4348 11.5192 26.3661C11.6606 26.3143 11.8095 26.2858 11.9601 26.2816C12.0893 26.2779 12.2155 26.3201 12.316 26.4006C12.3646 26.4395 12.403 26.4895 12.428 26.5463C12.4529 26.6032 12.4636 26.6651 12.4591 26.7269C12.4374 27.0307 12.3546 27.327 12.2154 27.5984L11.2175 29.802C11.1877 29.8587 11.1669 29.9195 11.1556 29.9824C11.1556 30.0362 11.1556 30.0631 11.2291 30.0631C11.3038 30.0516 11.3751 30.0241 11.4379 29.9824C11.5308 29.9249 11.6275 29.8596 11.728 29.7828C11.8197 29.7066 11.9075 29.6259 11.9911 29.541C12.0586 29.48 12.1219 29.4146 12.1806 29.3452L12.405 29.5064C12.3114 29.6274 12.2106 29.7428 12.1033 29.8519C11.9651 29.9895 11.8178 30.1178 11.6623 30.2358C11.5032 30.3554 11.3321 30.4583 11.1517 30.5429C10.9917 30.6222 10.816 30.6655 10.6373 30.6696C10.5475 30.6744 10.4592 30.6456 10.3897 30.589C10.3594 30.5612 10.3355 30.5273 10.3195 30.4895C10.3035 30.4518 10.2958 30.4111 10.2969 30.3702C10.2988 30.3211 10.3053 30.2722 10.3162 30.2243C10.3318 30.1541 10.3552 30.0859 10.3858 30.0208L11.5153 27.4564C11.5521 27.3865 11.5819 27.3132 11.6043 27.2375C11.625 27.1756 11.6354 27.1108 11.6352 27.0456C11.6352 26.9304 11.5849 26.869 11.4805 26.869C11.2977 26.888 11.1276 26.971 11.0009 27.1032C10.9428 27.1531 10.8423 27.2491 10.6991 27.3873C10.556 27.5255 10.3936 27.6982 10.2156 27.9017C10.0377 28.1052 9.85591 28.3278 9.67411 28.5735C9.49884 28.8071 9.34602 29.0564 9.21768 29.3183L8.56397 30.6351H7.92188L10.4439 24.5924Z" fill="#A27F69"/>
<path d="M16.0649 29.4706C15.9595 29.6304 15.8418 29.7819 15.7129 29.9236C15.5711 30.0678 15.4142 30.1965 15.2449 30.3075C15.0756 30.4325 14.891 30.5357 14.6956 30.6147C14.4904 30.6916 14.2728 30.7306 14.0535 30.7298C13.9423 30.7296 13.8316 30.7141 13.7247 30.6838C13.6138 30.6508 13.5101 30.5974 13.4191 30.5264C13.3248 30.4504 13.2505 30.353 13.2025 30.2423C13.1432 30.1027 13.1142 29.9522 13.1174 29.8008C13.1209 29.5567 13.156 29.3142 13.2219 29.079C13.2954 28.8151 13.3925 28.5581 13.512 28.3112C13.6404 28.0421 13.7932 27.7852 13.9684 27.5434C14.1393 27.3072 14.3351 27.0897 14.5525 26.8946C14.7588 26.7116 14.9907 26.559 15.241 26.4416C15.4823 26.3264 15.7469 26.2673 16.0146 26.2689C16.2413 26.2492 16.4672 26.3134 16.649 26.4493C16.7057 26.497 16.7521 26.5556 16.7853 26.6216C16.8186 26.6876 16.838 26.7596 16.8424 26.8332C16.8418 27.08 16.7692 27.3213 16.6335 27.5281C16.4786 27.7646 16.2805 27.9703 16.0494 28.1346C15.771 28.3343 15.4698 28.5005 15.152 28.6299C14.7832 28.7798 14.4029 28.9005 14.0148 28.9907C13.9834 29.1056 13.9588 29.2223 13.9413 29.3401C13.9172 29.4938 13.9055 29.6491 13.9065 29.8046C13.8963 29.9407 13.9331 30.0761 14.0109 30.1885C14.0453 30.2329 14.09 30.2683 14.1412 30.2917C14.1925 30.3151 14.2486 30.3258 14.3049 30.3229C14.5753 30.3096 14.8354 30.216 15.0515 30.0542C15.3514 29.8437 15.613 29.584 15.8251 29.2863L16.0649 29.4706ZM14.1038 28.6759C14.3823 28.5975 14.6519 28.4907 14.9083 28.3573C15.1436 28.2403 15.3632 28.0946 15.562 27.9235C15.7354 27.7761 15.8842 27.6025 16.003 27.4091C16.1058 27.2412 16.1606 27.0488 16.1616 26.8524C16.1659 26.8083 16.1597 26.7638 16.1436 26.7225C16.1275 26.6811 16.1019 26.6441 16.0688 26.6144C15.9971 26.5626 15.9097 26.5369 15.8212 26.5414C15.6635 26.5505 15.513 26.6097 15.3918 26.7104C15.2235 26.8432 15.0727 26.9967 14.9432 27.1672C14.7791 27.3788 14.6329 27.6035 14.5061 27.839C14.3619 28.1055 14.2327 28.3798 14.1193 28.6606" fill="#A27F69"/>
</svg>
