<svg width="47" height="43" viewBox="0 0 47 43" fill="none" xmlns="http://www.w3.org/2000/svg">
<mask id="mask0_295_266" style="mask-type:luminance" maskUnits="userSpaceOnUse" x="0" y="0" width="47" height="43">
<path d="M4.37453 40.0438H6.16921V39.3708H4.37453V40.0438ZM15.0304 39.8194H21.8726V39.0343H15.0304V39.8194ZM29.1635 38.2491H36.5666V37.1274H29.1635V38.2491ZM6.28137 37.0152V37.6883H8.30039V37.0152H6.28137ZM15.0304 37.3517H17.4981V36.5666H15.0304V37.3517ZM19.2928 37.3517H21.8726V36.5666H19.2928V37.3517ZM4.59886 35.3327H6.05704V34.6597H4.59886V35.3327ZM6.61788 34.5476V35.2206H8.18822V34.5476H6.61788ZM29.1635 35.3327H31.7434V34.0989H29.1635V35.3327ZM35.1084 35.3327H44.194V34.0989H35.1084V35.3327ZM15.2548 34.8841H21.8726V34.0989H15.2548V34.8841ZM2.80419 32.9772H5.83271V32.3042H2.80419V32.9772ZM7.17871 32.9772H8.18822V32.3042H7.17871V32.9772ZM15.0304 32.4164H21.8726V31.6312H15.0304V32.4164ZM29.1635 32.4164H42.5114V31.1825H29.1635V32.4164ZM3.02852 30.6217H4.59886V29.9487H3.02852V30.6217ZM6.39354 30.6217H8.18822V29.9487H6.39354V30.6217ZM16.4886 29.9487H21.8726V29.1635H16.4886V29.9487ZM30.6217 29.5H44.0818V28.2662H30.6217V29.5ZM15.0304 27.481H21.8726V26.6958H15.0304V27.481ZM29.1635 26.5837H36.5666V25.3498H29.1635V26.5837ZM39.9316 26.5837H44.194V25.3498H39.9316V26.5837ZM15.0304 25.0133H21.424V24.2282H15.0304V25.0133ZM31.0704 23.7795H33.6502V22.8822H31.0704V23.7795ZM37.0152 23.7795H39.5951V22.8822H37.0152V23.7795ZM43.0723 23.7795H44.194V22.8822H43.0723V23.7795ZM15.0304 22.5456H21.8726V21.7605H15.0304V22.5456ZM5.27187 20.1901L5.1597 24.3403H4.93537C3.25285 24.5647 1.90685 25.5742 1.12167 27.0323L1.00951 27.1445H0L0.224336 41.9506H1.23384V41.5019L1.12167 28.3784H1.68251L2.01901 27.8175C2.69202 26.5837 3.81369 25.5742 5.27187 25.5742H5.4962H5.60837C7.06655 25.5742 8.30039 26.4715 9.08556 27.7053L9.42206 28.2662H9.9829L10.2072 41.9506H11.2167L10.9924 27.0323H9.9829L9.87073 26.9202C8.97339 25.462 7.51522 24.4525 5.83271 24.3403H5.60837L5.27187 20.1901ZM26.3593 19.6293V42.0628H27.3688L27.481 40.0438V20.8631H45.9886V42.0628H46.9981V41.2776V19.6293H26.3593ZM15.3669 20.078H21.8726V19.2928H15.3669V20.078ZM15.0304 17.6103H21.8726V16.8251H15.0304V17.6103ZM15.0304 15.1426H19.6293V14.3574H15.0304V15.1426ZM21.424 15.1426H21.9848V14.3574H21.424V15.1426ZM17.0494 12.6749H19.9658V11.8897H17.0494V12.6749ZM18.6198 0L18.1711 6.95438H14.2453V9.9829H12.3384V39.4829L12.4506 42.0628H13.3479V11.2167H15.2548V8.18822H21.6483V11.2167H23.6673V34.6597L23.8917 42.0628H24.6768V40.6046V9.9829H22.77V6.95438H18.9563L18.6198 0Z" fill="white"/>
</mask>
<g mask="url(#mask0_295_266)">
<path d="M46.9981 0H0V42.0628H46.9981V0Z" fill="#6E7A73"/>
</g>
</svg>
