<svg width="34" height="43" viewBox="0 0 34 43" fill="none" xmlns="http://www.w3.org/2000/svg">
<mask id="mask0_295_274" style="mask-type:luminance" maskUnits="userSpaceOnUse" x="0" y="0" width="34" height="43">
<path d="M5.97482 40.0313C5.97482 39.6728 6.21382 39.3144 6.6918 39.3144C8.48425 39.3144 10.1572 39.3144 11.9496 39.3144C12.3081 39.3144 12.5471 39.5533 12.6666 40.0313C12.6666 40.2703 12.6666 40.3898 12.6666 40.6288H5.97482C5.97482 40.3898 5.85533 40.2703 5.97482 40.0313ZM1.31446 13.1446V7.88678H3.94338V9.79873C3.94338 10.6352 3.94338 11.4717 3.94338 12.3082C3.94338 12.9056 3.70439 13.1446 3.10691 13.1446C2.86792 13.1446 2.62892 13.1446 2.38993 13.1446C2.03144 13.1446 1.67295 13.1446 1.31446 13.1446ZM11.8302 1.55348C17.327 3.22643 22.7043 4.89939 28.0817 6.45284H11.8302V1.55348ZM7.88677 4.54089C7.88677 3.58492 7.88677 2.74842 7.88677 1.79245V1.31447H10.5157V6.57231H2.38993C3.82389 5.13835 5.13835 3.82389 6.57231 2.38993C6.57231 2.62892 6.57231 2.86792 6.57231 3.10692C6.57231 3.5849 6.57231 4.0629 6.57231 4.54089C6.57231 5.01887 6.8113 5.25787 7.16979 5.25787C7.64778 5.25787 7.88677 4.89938 7.88677 4.54089ZM7.28929 0C7.05029 0 6.8113 0.119511 6.6918 0.239008C4.54087 2.38994 2.38993 4.54087 0.238993 6.69181C0.119497 6.81131 0 7.0503 0 7.28929C0 9.44023 0 11.5912 0 13.7421C0 14.2201 0.238993 14.4591 0.716979 14.4591C1.55345 14.4591 2.27043 14.4591 3.10691 14.4591C4.42137 14.4591 5.25785 13.6226 5.25785 12.3082C5.25785 11.7107 5.25785 11.1132 5.25785 10.5157H6.57231V37.9999C5.13835 38.1194 4.54087 39.1949 4.66036 40.2703C4.66036 40.5093 4.66036 40.7483 4.66036 41.1068C4.66036 41.4653 4.77986 41.8238 5.01885 42.0628H13.3836C13.7421 41.8238 13.8616 41.5848 13.7421 41.1068C13.7421 40.7483 13.7421 40.3898 13.7421 40.0313C13.7421 39.0754 13.1446 38.3584 12.3081 38.1194C12.0691 38.1194 11.8302 37.9999 11.7107 37.9999C10.3962 37.9999 9.20123 37.9999 7.88677 37.9999V10.3962H10.5157V10.8742C10.5157 19.1194 10.5157 27.3647 10.5157 35.61C10.5157 35.7295 10.5157 35.849 10.5157 35.9684C10.5157 36.3269 10.8742 36.5659 11.1132 36.5659C11.4717 36.5659 11.7107 36.3269 11.7107 35.9684C11.7107 35.849 11.7107 35.7295 11.7107 35.61C11.7107 27.3647 11.7107 19.1194 11.7107 10.8742V10.2767H12.1886C13.7421 10.2767 15.2956 10.2767 16.849 10.2767C17.327 10.2767 17.566 10.0377 17.566 9.67922C17.566 9.32073 17.327 9.08173 16.849 8.96224C16.7295 8.96224 16.61 8.96224 16.4905 8.96224H5.73583H5.25785V7.6478H32.1446V8.96224H31.6666H19.9559C19.8364 8.96224 19.7169 8.96224 19.5974 8.96224C19.2389 8.96224 18.9999 9.20123 18.9999 9.55972C18.9999 9.91821 19.2389 10.1572 19.5974 10.2767C19.7169 10.2767 19.8364 10.2767 19.9559 10.2767C22.8238 10.2767 25.5723 10.2767 28.4402 10.2767H28.9182C28.9182 11.1132 28.9182 11.8302 28.9182 12.5471C28.9182 12.9056 28.7987 13.0251 28.5597 13.1446C27.7232 13.6226 27.3647 14.5786 27.7232 15.5345C28.0817 16.371 28.9182 16.9685 29.8741 16.849C30.8301 16.7295 31.5471 15.893 31.5471 15.0566C31.5471 14.5786 31.3081 14.3396 30.9496 14.3396C30.5911 14.3396 30.2326 14.5786 30.2326 14.9371C30.1131 15.415 29.8741 15.654 29.5156 15.654C29.1571 15.654 28.9182 15.2956 28.9182 15.0566C28.9182 14.6981 29.1571 14.4591 29.6351 14.3396C30.1131 14.2201 30.2326 14.1006 30.2326 13.6226C30.2326 12.6667 30.2326 11.7107 30.2326 10.8742V10.5157C31.0691 10.5157 31.9056 10.5157 32.6225 10.5157C33.22 10.5157 33.459 10.2767 33.459 9.67922C33.459 8.96224 33.459 8.24528 33.459 7.5283C33.459 6.93082 33.3395 6.6918 32.742 6.57231C25.9307 4.54087 19.1194 2.38995 12.1886 0.358511C11.8302 0.239015 11.3522 0.119504 10.9937 0.119504C10.3962 0.119504 9.79871 0.119504 9.32073 0.119504C8.60375 7.29171e-06 8.00627 0 7.28929 0Z" fill="white"/>
</mask>
<g mask="url(#mask0_295_274)">
<path d="M33.459 0H0V42.0628H33.459V0Z" fill="#6E7A73"/>
</g>
<mask id="mask1_295_274" style="mask-type:luminance" maskUnits="userSpaceOnUse" x="0" y="18" width="17" height="24">
<path d="M1.31446 32.862H5.25785V40.7488H1.31446V32.862ZM6.57231 32.862H10.5157V40.7488H6.57231V32.862ZM1.31446 27.6042H5.25785V31.5476H1.31446V27.6042ZM6.57231 27.6042H10.5157V31.5476H6.57231V27.6042ZM11.8302 27.6042H15.7735V31.5476H11.8302V27.6042ZM6.57231 22.3463H10.5157V26.2897H6.57231V22.3463ZM11.8302 22.3463H15.7735V26.2897H11.8302V22.3463ZM5.85533 18.403C5.49684 18.403 5.25785 18.6419 5.25785 19.1199C5.25785 21.3903 5.25785 23.5413 5.25785 25.8117V26.2897H1.31446V25.8117C1.31446 24.4973 1.31446 23.1828 1.31446 21.7488C1.31446 21.3903 1.19497 21.1513 0.836476 21.0319C0.597483 20.9124 0.238993 21.0319 0.119497 21.2709C4.54062e-07 21.3904 0 21.6293 0 21.8683C0 28.3212 0 34.774 0 41.1073C0 41.4658 0.119496 41.8242 0.358489 41.9437H16.61C16.7295 41.7047 16.9685 41.4657 16.9685 41.2268C16.9685 40.1513 16.9685 39.0758 16.9685 38.0004C16.9685 37.6419 16.7295 37.4029 16.4905 37.4029C16.0125 37.2834 15.654 37.6419 15.654 38.1199C15.654 38.9563 15.654 39.7928 15.654 40.6293H11.7107V32.7425H15.654C15.654 33.579 15.654 34.535 15.654 35.3714C15.654 35.7299 15.893 35.9689 16.2515 36.0884C16.61 36.0884 16.849 35.8494 16.9685 35.3714V35.2519C16.9685 29.8746 16.9685 24.4972 16.9685 19.1199C16.9685 18.6419 16.7295 18.2834 16.371 18.2834C15.893 18.2834 15.7735 18.5224 15.7735 19.1199C15.7735 19.7174 15.7735 20.3149 15.7735 20.9123H11.8302C11.8302 20.3149 11.8302 19.7174 11.8302 19.1199C11.8302 18.6419 11.5912 18.2834 11.1132 18.2834C10.6352 18.2834 10.5157 18.5224 10.5157 19.1199C10.5157 19.7174 10.5157 20.3149 10.5157 20.9123H6.57231C6.57231 20.1954 6.57231 19.5979 6.57231 19.0004C6.57231 18.6419 6.33331 18.403 5.85533 18.403Z" fill="white"/>
</mask>
<g mask="url(#mask1_295_274)">
<path d="M17.088 18.4031H0V42.0634H17.088V18.4031Z" fill="#6E7A73"/>
</g>
</svg>
